<?xml version="1.0" encoding="utf-8"?>
<!-- Generator: Adobe Illustrator 15.0.0, SVG Export Plug-In  -->
<!DOCTYPE svg PUBLIC "-//W3C//DTD SVG 1.1//EN" "http://www.w3.org/Graphics/SVG/1.1/DTD/svg11.dtd" [
	<!ENTITY ns_flows "http://ns.adobe.com/Flows/1.0/">
]>
<svg version="1.1"
	 xmlns="http://www.w3.org/2000/svg" xmlns:xlink="http://www.w3.org/1999/xlink" xmlns:a="http://ns.adobe.com/AdobeSVGViewerExtensions/3.0/"
	 x="0px" y="0px" width="638px" height="599px" viewBox="0 0 638 599" overflow="visible" enable-background="new 0 0 638 599"
	 xml:space="preserve">
<defs>
</defs>
<path fill="#666666" d="M290.15,133.155c-3.408,0-6.193,2.063-6.289,5.856h12.48C296.342,135.459,293.75,133.155,290.15,133.155z"/>
<path fill="#666666" d="M262.656,148.757c4.465,0,7.344-3.505,7.344-7.681c0-4.177-2.879-7.729-7.344-7.729
	s-7.346,3.553-7.346,7.729C255.311,145.252,258.191,148.757,262.656,148.757z"/>
<path fill="#666666" d="M454.307,460.911h-6v25.73h6c8.256,0,12.912-6.385,12.912-12.865
	C467.219,467.248,462.562,460.911,454.307,460.911z"/>
<path fill="#666666" d="M498.523,471.952c-4.465,0-7.346,3.553-7.346,7.729c0,4.176,2.881,7.681,7.346,7.681
	s7.344-3.505,7.344-7.681C505.867,475.505,502.988,471.952,498.523,471.952z"/>
<path fill="#666666" d="M554.01,471.952c-4.465,0-7.346,3.553-7.346,7.729c0,4.176,2.881,7.681,7.346,7.681s7.344-3.505,7.344-7.681
	C561.354,475.505,558.475,471.952,554.01,471.952z"/>
<path fill="#666666" d="M510.18,344.605c-18.881,0-36.785,4.142-52.9,11.514l-68.139-122.665
	c34.324-22.812,56.957-61.813,56.957-106.114C446.098,57.011,389.084,0,318.758,0c-70.33,0-127.34,57.011-127.34,127.34
	c0,44.302,22.633,83.304,56.957,106.116l-68.137,122.663c-16.117-7.372-34.02-11.514-52.9-11.514
	C57.012,344.605,0,401.617,0,471.946c0,70.327,57.012,127.341,127.338,127.341c66.959,0,121.807-51.692,126.912-117.341h129.016
	c5.105,65.648,59.955,117.341,126.914,117.341c70.328,0,127.34-57.014,127.34-127.341
	C637.52,401.617,580.508,344.605,510.18,344.605z M245.543,151.973h-4.512V118.37h4.512V151.973z M383.738,152.501
	c-2.977,0-5.137-1.009-6.48-2.784c-1.201-1.633-1.633-3.601-1.633-6.817v-12.721h4.178v11.425c0,4.081,1.248,7.201,5.424,7.201
	c4.416,0,6.289-3.505,6.289-7.441v-11.185h4.176v23.33c0,7.729-4.129,10.753-10.273,10.753c-7.201,0-10.08-4.128-10.273-9.457h4.082
	c0.096,3.408,1.727,5.761,6.145,5.761c4.08,0,6.145-1.968,6.145-7.057v-5.425C390.17,150.772,387.627,152.501,383.738,152.501z
	 M357.248,130.179h4.031v-7.345h4.176v7.345h5.666v3.504h-5.666v10.033c0,4.225,1.488,4.753,3.602,4.753
	c0.863,0,2.207-0.097,2.832-0.192v3.696c-0.816,0.144-2.352,0.288-3.793,0.288c-2.641,0-6.816-0.48-6.816-7.633v-10.945h-4.031
	V130.179z M350.705,118.514c1.871,0,3.359,1.536,3.359,3.408c0,1.824-1.488,3.312-3.359,3.312c-1.873,0-3.361-1.488-3.361-3.312
	C347.344,120.05,348.832,118.514,350.705,118.514z M352.77,130.179v21.794h-4.129v-21.794H352.77z M329.615,130.179h4.031v-7.345
	h4.176v7.345h5.666v3.504h-5.666v10.033c0,4.225,1.488,4.753,3.602,4.753c0.863,0,2.207-0.097,2.832-0.192v3.696
	c-0.816,0.144-2.352,0.288-3.793,0.288c-2.641,0-6.816-0.48-6.816-7.633v-10.945h-4.031V130.179z M305.975,130.179h4.176v3.841
	c1.297-2.641,3.938-4.417,7.729-4.417c2.785,0,5.041,0.96,6.482,2.881c1.199,1.632,1.68,3.6,1.68,6.624v12.865h-4.178v-11.569
	c0-4.032-1.486-7.104-5.471-7.104c-4.273,0-6.242,3.553-6.242,7.44v11.233h-4.176V130.179z M290.053,129.603
	c6.049,0,10.322,4.272,10.322,9.841c0,0.624,0,1.536-0.193,2.736h-16.369c0,3.696,1.92,6.816,6.578,6.816
	c3.311,0,4.848-1.584,5.568-3.456h4.223c-0.768,3.696-4.223,6.961-9.791,6.961c-7.297,0-10.85-5.521-10.85-11.521
	C279.541,134.499,283.621,129.603,290.053,129.603z M262.176,129.603c3.697,0,6.48,1.824,7.824,4.32V118.37h4.129v33.603H270v-3.792
	c-1.344,2.496-4.127,4.32-7.871,4.32c-6.338,0-10.945-5.28-10.945-11.425C251.184,134.883,255.84,129.603,262.176,129.603z
	 M53.734,479.873h-7.439v10.705h-4.369v-33.603h11.809c7.01,0,11.521,5.28,11.521,11.425
	C65.256,474.593,60.744,479.873,53.734,479.873z M89.697,490.578H85.52v-11.569c0-4.032-1.486-7.104-5.471-7.104
	c-4.273,0-6.242,3.553-6.242,7.44v11.233h-4.176v-33.603h4.176v15.649c1.297-2.641,3.938-4.417,7.729-4.417
	c2.785,0,5.041,0.96,6.482,2.881c1.199,1.632,1.68,3.6,1.68,6.624V490.578z M116.078,492.114c0,7.729-4.129,10.753-10.273,10.753
	c-7.201,0-10.08-4.128-10.273-9.457h4.082c0.096,3.408,1.727,5.761,6.145,5.761c4.08,0,6.145-1.968,6.145-7.057v-5.425
	c-1.346,2.688-3.889,4.417-7.777,4.417c-2.977,0-5.137-1.009-6.48-2.784c-1.201-1.633-1.633-3.601-1.633-6.817v-12.721h4.178v11.425
	c0,4.081,1.248,7.201,5.424,7.201c4.416,0,6.289-3.505,6.289-7.441v-11.185h4.176V492.114z M130.49,491.106
	c-5.088,0-9.217-2.593-9.217-7.873h4.08c0,3.312,2.209,4.561,5.186,4.561c2.592,0,4.32-0.96,4.32-3.072
	c0-2.305-2.018-2.496-6.914-4.128c-3.168-1.057-5.904-2.257-5.904-6.001c0-4.368,3.744-6.385,7.922-6.385
	c5.039,0,8.641,2.977,8.641,7.345h-4.033c0-2.544-1.584-3.984-4.416-3.984c-2.352,0-4.08,1.008-4.08,2.929
	c0,2.208,2.256,2.496,6.289,3.792c3.119,1.008,6.48,2.16,6.48,6.288C138.844,488.946,135.146,491.106,130.49,491.106z
	 M148.859,490.578h-4.129v-21.794h4.129V490.578z M146.795,463.84c-1.873,0-3.361-1.488-3.361-3.312
	c0-1.872,1.488-3.408,3.361-3.408c1.871,0,3.359,1.536,3.359,3.408C150.154,462.352,148.666,463.84,146.795,463.84z
	 M165.562,491.106c-7.488,0-11.137-5.521-11.137-11.425c0-5.905,3.648-11.474,11.088-11.474c6.48,0,9.746,4.177,10.082,8.497h-4.176
	c-0.289-2.688-2.162-4.753-5.809-4.753c-4.896,0-7.01,3.648-7.01,7.729c0,4.128,2.113,7.681,7.105,7.681
	c3.455,0,5.088-1.681,5.76-4.272h4.176C175.066,487.362,171.707,491.106,165.562,491.106z M202.299,490.578h-4.129v-3.792
	c-1.344,2.496-4.127,4.32-7.871,4.32c-6.338,0-10.945-5.28-10.945-11.425c0-6.193,4.656-11.474,10.992-11.474
	c3.697,0,6.48,1.824,7.824,4.32v-3.744h4.129V490.578z M213.244,490.578h-4.176v-33.603h4.176V490.578z M383.266,461.946H254.25
	c-3.121-40.132-24.816-75.038-56.527-96.115l68.135-122.663c16.115,7.372,34.02,11.514,52.9,11.514s36.785-4.142,52.9-11.515
	l68.139,122.664C408.082,386.908,386.387,421.814,383.266,461.946z M454.307,490.578h-10.369v-33.603h10.369
	c11.137,0,17.426,8.305,17.426,16.801C471.732,482.273,465.443,490.578,454.307,490.578z M481.531,490.578h-4.129v-21.794h4.129
	V490.578z M479.467,463.84c-1.873,0-3.361-1.488-3.361-3.312c0-1.872,1.488-3.408,3.361-3.408c1.871,0,3.359,1.536,3.359,3.408
	C482.826,462.352,481.338,463.84,479.467,463.84z M509.996,491.971c0,7.776-4.561,10.896-11.232,10.896
	c-8.354,0-11.09-4.849-11.426-9.505h4.225c0.289,3.12,2.111,5.809,7.057,5.809c4.32,0,7.248-2.064,7.248-7.2v-5.185
	c-1.344,2.496-4.127,4.32-7.871,4.32c-6.338,0-10.945-5.28-10.945-11.425c0-6.193,4.656-11.474,10.992-11.474
	c3.697,0,6.48,1.824,7.824,4.32v-3.744h4.129V491.971z M521.299,490.578h-4.129v-21.794h4.129V490.578z M519.234,463.84
	c-1.873,0-3.361-1.488-3.361-3.312c0-1.872,1.488-3.408,3.361-3.408c1.871,0,3.359,1.536,3.359,3.408
	C522.594,462.352,521.105,463.84,519.234,463.84z M540.426,490.578c-0.816,0.144-2.352,0.288-3.793,0.288
	c-2.641,0-6.816-0.48-6.816-7.633v-10.945h-4.031v-3.504h4.031v-7.345h4.176v7.345h5.666v3.504h-5.666v10.033
	c0,4.225,1.488,4.753,3.602,4.753c0.863,0,2.207-0.097,2.832-0.192V490.578z M565.482,490.578h-4.129v-3.792
	c-1.344,2.496-4.127,4.32-7.871,4.32c-6.338,0-10.945-5.28-10.945-11.425c0-6.193,4.656-11.474,10.992-11.474
	c3.697,0,6.48,1.824,7.824,4.32v-3.744h4.129V490.578z M576.428,490.578h-4.176v-33.603h4.176V490.578z"/>
<path fill="#666666" d="M53.734,460.911h-7.439v14.978h7.439c4.369,0,7.152-3.408,7.152-7.488
	C60.887,464.368,58.104,460.911,53.734,460.911z"/>
<path fill="#666666" d="M190.826,471.952c-4.465,0-7.346,3.553-7.346,7.729c0,4.176,2.881,7.681,7.346,7.681
	s7.344-3.505,7.344-7.681C198.17,475.505,195.291,471.952,190.826,471.952z"/>
</svg>
