<?xml version="1.0" encoding="utf-8"?>
<!DOCTYPE svg PUBLIC "-//W3C//DTD SVG 1.1//EN" "http://www.w3.org/Graphics/SVG/1.1/DTD/svg11.dtd">
<svg version="1.1" id="Layer_1" xmlns="http://www.w3.org/2000/svg" xmlns:xlink="http://www.w3.org/1999/xlink" x="0px" y="0px"
	 width="43px" height="64px" viewBox="0 0 43 64" enable-background="new 0 0 43 64" xml:space="preserve">
<path fill="#3a3a3c" d="M20.694,0C9.255,0,0,9.256,0,20.695c0,2.465,0.282,5.012,1.333,7.234l14.754,31.285
  c0.808,1.777,2.668,2.871,4.607,2.871c1.94,0,3.8-1.094,4.648-2.871L40.057,27.93c1.051-2.223,1.334-4.77,1.334-7.234
  C41.391,9.256,32.134,0,20.694,0z M22.591,38.674h-4.213V24.029h4.213V38.674z M20.466,20.551c-1.701,0-3.093-1.391-3.093-3.092
  c0-1.74,1.392-3.131,3.093-3.131c1.739,0,3.132,1.391,3.132,3.131C23.598,19.16,22.205,20.551,20.466,20.551z"/>
</svg>
