<?xml version="1.0" encoding="utf-8"?>
<!-- Generator: Adobe Illustrator 15.0.0, SVG Export Plug-In  -->
<!DOCTYPE svg PUBLIC "-//W3C//DTD SVG 1.1//EN" "http://www.w3.org/Graphics/SVG/1.1/DTD/svg11.dtd" [
	<!ENTITY ns_flows "http://ns.adobe.com/Flows/1.0/">
]>
<svg version="1.1"
	 xmlns="http://www.w3.org/2000/svg" xmlns:xlink="http://www.w3.org/1999/xlink" xmlns:a="http://ns.adobe.com/AdobeSVGViewerExtensions/3.0/"
	 x="0px" y="0px" width="200px" height="200px" viewBox="37.478 20.5 200 200"
	 overflow="visible" enable-background="new 37.478 20.5 200 200" xml:space="preserve">
<defs>
</defs>
<rect fill="#888888" width="274.955" height="241"/>
<path fill="none" d="M156.546,53.415c5.667,5.667,9.805,7.047,14.187,8.507c4.592,1.53,9.338,3.112,15.576,9.35
	c6.239,6.24,7.821,10.987,9.353,15.579c1.459,4.381,2.84,8.52,8.507,14.187c5.666,5.667,9.804,7.045,14.185,8.506
	c1.149,0.382,2.307,0.769,3.496,1.23c-0.224-1.945-0.516-3.869-0.866-5.772c-3.662-1.396-7.606-3.46-12.463-8.317l0,0
	c-6.326-6.325-7.92-11.105-9.461-15.729c-1.45-4.348-2.819-8.455-8.4-14.036c-5.58-5.579-9.686-6.948-14.032-8.397
	c-4.623-1.542-9.404-3.134-15.729-9.459l1.396-1.396l-1.396,1.396c-4.701-4.703-6.787-8.551-8.183-12.115
	c-1.902-0.345-3.824-0.636-5.769-0.852c0.399,1.061,0.749,2.1,1.093,3.129C149.498,43.609,150.877,47.747,156.546,53.415z"/>
<path fill="none" d="M105.179,82.087c1.459,4.381,2.84,8.52,8.508,14.188c5.667,5.667,9.805,7.046,14.186,8.506
	c4.592,1.531,9.339,3.113,15.576,9.352c6.241,6.239,7.822,10.986,9.354,15.577c1.459,4.382,2.839,8.519,8.506,14.186
	s9.805,7.047,14.187,8.508c4.589,1.529,9.336,3.112,15.574,9.351c6.239,6.239,7.823,10.986,9.354,15.577
	c0.017,0.048,0.032,0.097,0.048,0.145c1.339-1.478,2.608-3.016,3.84-4.584c-0.166-0.488-0.329-0.974-0.49-1.456
	c-1.448-4.347-2.817-8.452-8.397-14.033c-5.579-5.579-9.685-6.948-14.032-8.397c-4.624-1.541-9.403-3.135-15.729-9.461
	c-6.326-6.325-7.921-11.105-9.462-15.729c-1.449-4.349-2.818-8.455-8.398-14.035c-5.579-5.58-9.686-6.948-14.033-8.397
	c-4.623-1.541-9.403-3.134-15.729-9.461c-6.328-6.326-7.922-11.107-9.463-15.731c-1.449-4.347-2.818-8.453-8.396-14.031
	c-5.58-5.579-9.686-6.948-14.033-8.398c-0.275-0.091-0.551-0.184-0.828-0.276c-1.574,1.228-3.113,2.498-4.597,3.832
	c4.446,1.487,9.081,3.169,15.106,9.196C102.064,72.75,103.647,77.497,105.179,82.087z"/>
<path fill="none" d="M188.277,164.545c-5.579-5.579-9.686-6.947-14.032-8.396c-4.623-1.542-9.403-3.135-15.729-9.461
	s-7.919-11.106-9.46-15.729c-1.448-4.348-2.817-8.454-8.398-14.035c-5.58-5.579-9.686-6.949-14.033-8.398
	c-4.623-1.541-9.404-3.135-15.729-9.46c-6.327-6.327-7.921-11.107-9.462-15.731c-1.45-4.347-2.818-8.452-8.397-14.031
	c-5.579-5.581-9.687-6.95-14.034-8.4c-0.508-0.169-1.02-0.34-1.533-0.518c-1.321,1.319-2.582,2.695-3.815,4.098
	c4.424,1.48,9.039,3.177,15.032,9.17c6.238,6.238,7.82,10.985,9.35,15.576c1.461,4.381,2.841,8.52,8.507,14.187v0
	c5.668,5.667,9.806,7.046,14.187,8.506c4.591,1.53,9.338,3.113,15.577,9.351c6.24,6.24,7.823,10.988,9.354,15.58
	c1.46,4.38,2.84,8.519,8.506,14.185c5.667,5.667,9.806,7.046,14.186,8.507c4.59,1.53,9.337,3.113,15.576,9.352
	c6.238,6.238,7.82,10.985,9.352,15.576c0.003,0.009,0.007,0.019,0.01,0.029c1.407-1.229,2.786-2.487,4.109-3.807
	c-0.251-0.711-0.488-1.417-0.721-2.116C195.227,174.232,193.858,170.125,188.277,164.545z"/>
<path fill="none" d="M163.688,46.272c5.667,5.667,9.805,7.046,14.186,8.506c4.59,1.53,9.337,3.113,15.575,9.351
	c6.24,6.239,7.822,10.987,9.354,15.579c1.46,4.381,2.839,8.52,8.507,14.185l-1.396,1.396l1.396-1.396
	c3.289,3.289,6.061,5.129,8.666,6.384c-0.778-3.185-1.725-6.301-2.85-9.333c-0.48-0.443-0.968-0.902-1.466-1.401l0.655-0.655l0,0
	l-0.655,0.654c-6.326-6.326-7.919-11.106-9.46-15.729c-0.766-2.301-1.518-4.537-2.875-6.958c-3.854-4.724-8.211-9.015-12.981-12.814
	c-2.274-1.227-4.396-1.934-6.575-2.661c-4.624-1.541-9.404-3.135-15.729-9.46c-0.367-0.368-0.717-0.729-1.053-1.086
	c-3.09-1.145-6.269-2.102-9.516-2.885C158.722,40.455,160.544,43.128,163.688,46.272L163.688,46.272z"/>
<path fill="none" d="M149.401,60.559c5.667,5.667,9.806,7.046,14.187,8.506c4.591,1.53,9.338,3.112,15.577,9.351
	c6.24,6.239,7.821,10.987,9.353,15.579c1.46,4.381,2.839,8.519,8.506,14.185c5.666,5.668,9.806,7.047,14.187,8.507
	c3.446,1.148,6.98,2.327,11.167,5.481c0.01-0.558,0.042-1.108,0.042-1.669c0-1.77-0.072-3.522-0.178-5.267
	c-1.745-0.809-3.423-1.373-5.137-1.944c-4.623-1.541-9.404-3.134-15.729-9.459c-6.326-6.326-7.92-11.107-9.461-15.73
	c-1.448-4.348-2.818-8.455-8.397-14.035c-5.579-5.579-9.686-6.947-14.034-8.396c-4.623-1.541-9.403-3.134-15.729-9.46
	c-6.328-6.327-7.921-11.108-9.462-15.731c-0.53-1.588-1.05-3.146-1.769-4.753c-1.671-0.098-3.351-0.162-5.047-0.162
	c-0.595,0-1.182,0.033-1.774,0.045c2.933,4.011,4.081,7.432,5.191,10.767C142.354,50.753,143.733,54.892,149.401,60.559z"/>
<path fill="none" d="M133.751,53.514c1.461,4.381,2.84,8.521,8.507,14.188c5.667,5.667,9.806,7.046,14.188,8.506
	c4.591,1.53,9.337,3.112,15.576,9.35c6.241,6.241,7.823,10.989,9.354,15.58c1.459,4.381,2.839,8.519,8.505,14.186v0
	c5.667,5.666,9.805,7.047,14.186,8.506c4.59,1.53,9.337,3.113,15.575,9.352c0.559,0.558,1.065,1.099,1.553,1.633
	c0.431-2.541,0.745-5.121,0.946-7.732c-4.665-4.139-8.327-5.364-12.178-6.648c-4.625-1.541-9.405-3.134-15.73-9.461
	c-6.326-6.325-7.92-11.105-9.46-15.729c-1.449-4.348-2.818-8.455-8.398-14.035c-5.579-5.58-9.687-6.948-14.035-8.397
	c-4.622-1.541-9.403-3.134-15.729-9.459c-6.327-6.327-7.92-11.107-9.461-15.731c-1.247-3.74-2.441-7.304-6.301-11.778
	c-2.584,0.2-5.135,0.51-7.648,0.936c0.395,0.369,0.795,0.753,1.201,1.161C130.64,44.176,132.221,48.923,133.751,53.514z"/>
<path fill="none" d="M119.464,67.799c1.461,4.382,2.841,8.521,8.51,14.188c5.667,5.667,9.804,7.046,14.185,8.507
	c4.59,1.531,9.336,3.113,15.574,9.352c6.242,6.24,7.824,10.988,9.356,15.579c1.459,4.381,2.84,8.518,8.505,14.185
	c5.666,5.665,9.805,7.046,14.187,8.506c4.591,1.529,9.338,3.112,15.576,9.352c4.406,4.405,6.486,8.065,7.869,11.454
	c1.106-2.177,2.123-4.407,3.042-6.688c-1.245-2.745-3.085-5.646-6.559-9.119c-5.579-5.579-9.685-6.948-14.032-8.396
	c-4.624-1.541-9.404-3.135-15.729-9.46l0,0c-6.328-6.326-7.922-11.107-9.462-15.73c-1.45-4.348-2.818-8.455-8.4-14.034
	c-5.579-5.58-9.685-6.948-14.033-8.397c-4.622-1.542-9.403-3.134-15.729-9.46c-6.329-6.327-7.922-11.109-9.463-15.733
	c-1.449-4.346-2.816-8.452-8.393-14.029c-3.206-3.206-5.926-5.019-8.483-6.259c-2.278,0.911-4.507,1.915-6.683,3.012
	c3.209,1.385,6.684,3.47,10.812,7.599C116.351,58.462,117.934,63.209,119.464,67.799z"/>
<path fill="none" d="M112.32,74.943c1.461,4.381,2.841,8.52,8.509,14.188c5.666,5.667,9.805,7.047,14.186,8.507
	c4.591,1.53,9.339,3.112,15.576,9.351c6.239,6.24,7.821,10.987,9.354,15.578c1.46,4.382,2.84,8.52,8.507,14.187
	s9.807,7.046,14.187,8.507c4.591,1.53,9.338,3.113,15.576,9.351c5.715,5.717,7.521,10.179,8.961,14.418
	c1.245-1.785,2.425-3.618,3.532-5.501c-1.369-4.07-2.891-8.016-8.142-13.269c-5.578-5.58-9.686-6.949-14.033-8.396
	c-4.624-1.542-9.405-3.135-15.73-9.46c-6.324-6.325-7.918-11.106-9.459-15.729c-1.45-4.348-2.819-8.455-8.401-14.036
	c-5.578-5.58-9.685-6.949-14.032-8.398c-4.622-1.541-9.402-3.135-15.728-9.461c-6.327-6.327-7.922-11.108-9.463-15.732
	c-1.45-4.347-2.819-8.452-8.396-14.03c-4.959-4.958-8.754-6.592-12.588-7.911c-1.893,1.106-3.742,2.277-5.539,3.521
	c4.049,1.411,8.348,3.313,13.774,8.74C109.208,65.605,110.79,70.353,112.32,74.943z"/>
<path fill="none" d="M159.96,170.436c-4.624-1.542-9.405-3.135-15.73-9.461c-6.326-6.325-7.919-11.106-9.461-15.729
	c-1.449-4.348-2.818-8.455-8.399-14.036c-5.579-5.58-9.687-6.948-14.032-8.396c-4.623-1.542-9.404-3.135-15.73-9.459l1.396-1.396
	l-1.396,1.396c-6.327-6.327-7.92-11.108-9.461-15.733c-1.449-4.347-2.818-8.453-8.395-14.03c-5.253-5.252-9.2-6.773-13.271-8.143
	c-0.937,1.495-1.846,3.008-2.689,4.563c3.432,1.382,7.137,3.458,11.608,7.931c6.237,6.238,7.821,10.985,9.351,15.576
	c1.46,4.381,2.84,8.52,8.508,14.188c5.666,5.667,9.804,7.046,14.186,8.506c4.592,1.529,9.339,3.112,15.578,9.351
	c6.238,6.239,7.82,10.987,9.352,15.578c1.459,4.381,2.839,8.52,8.506,14.188c5.667,5.666,9.806,7.045,14.187,8.506
	c4.591,1.529,9.338,3.112,15.576,9.351c4.688,4.689,6.746,8.535,8.13,12.105c1.546-0.835,3.056-1.728,4.544-2.652
	c-1.422-4.265-2.84-8.324-8.321-13.806C168.415,173.252,164.308,171.885,159.96,170.436z"/>
<path fill="none" d="M181.135,171.689c-5.579-5.579-9.686-6.948-14.032-8.398c-4.624-1.541-9.403-3.135-15.729-9.461
	c-6.326-6.325-7.92-11.104-9.461-15.727c-1.449-4.349-2.818-8.455-8.4-14.037c-5.579-5.579-9.686-6.948-14.033-8.397
	c-4.623-1.541-9.403-3.134-15.73-9.459l1.396-1.396l-1.396,1.396c-6.326-6.326-7.918-11.107-9.459-15.73
	c-1.449-4.347-2.818-8.453-8.396-14.032c-5.58-5.58-9.688-6.949-14.035-8.398c-0.307-0.102-0.613-0.205-0.924-0.309
	c-1.111,1.401-2.182,2.834-3.205,4.305c4.06,1.412,8.368,3.311,13.812,8.755c6.237,6.237,7.819,10.984,9.35,15.574
	c1.459,4.382,2.839,8.521,8.506,14.188l0,0c5.668,5.666,9.807,7.046,14.188,8.506c4.59,1.53,9.338,3.113,15.576,9.352
	c6.239,6.239,7.822,10.987,9.354,15.577c1.46,4.383,2.839,8.521,8.506,14.187c5.668,5.667,9.807,7.046,14.188,8.507
	c4.59,1.529,9.337,3.112,15.575,9.351c5.688,5.688,7.505,10.136,8.941,14.356c1.471-1.018,2.904-2.086,4.307-3.191
	c-0.17-0.498-0.336-0.992-0.5-1.483C188.083,181.375,186.714,177.27,181.135,171.689z"/>
<path fill="none" d="M152.815,177.578c-4.623-1.541-9.403-3.134-15.729-9.46c-6.326-6.326-7.92-11.107-9.461-15.729
	c-1.449-4.349-2.818-8.455-8.396-14.035c-5.58-5.58-9.688-6.949-14.035-8.397c-4.623-1.541-9.404-3.134-15.729-9.459
	c-6.328-6.327-7.922-11.108-9.463-15.732c-1.449-4.348-2.817-8.454-8.396-14.033c-4.113-4.114-7.426-5.936-10.625-7.192
	c-0.801,1.653-1.533,3.345-2.227,5.055c2.566,1.369,5.342,3.333,8.5,6.49c6.237,6.237,7.82,10.984,9.35,15.575
	c1.461,4.381,2.84,8.52,8.51,14.189c5.666,5.665,9.803,7.044,14.186,8.505c4.59,1.529,9.337,3.113,15.576,9.351
	c6.239,6.239,7.822,10.987,9.353,15.578c1.46,4.382,2.839,8.521,8.505,14.186c5.667,5.668,9.806,7.047,14.187,8.508
	c4.591,1.528,9.338,3.111,15.576,9.35c3.349,3.348,5.349,6.264,6.727,8.959c1.693-0.684,3.371-1.401,5.009-2.188
	c-1.264-3.354-3.055-6.795-7.383-11.121C161.271,180.396,157.164,179.027,152.815,177.578z"/>
<path fill="none" d="M145.671,184.722c-4.622-1.542-9.402-3.135-15.729-9.461c-6.325-6.325-7.919-11.106-9.459-15.729
	c-1.45-4.349-2.818-8.455-8.398-14.036c-5.58-5.579-9.688-6.947-14.035-8.396c-4.622-1.541-9.402-3.135-15.728-9.459
	c-6.328-6.327-7.921-11.109-9.463-15.732c-1.449-4.347-2.817-8.453-8.396-14.031c-2.645-2.646-4.957-4.338-7.123-5.548
	c-0.678,1.932-1.289,3.896-1.83,5.889c1.449,1.076,2.974,2.382,4.603,4.01c6.238,6.237,7.82,10.983,9.35,15.574
	c1.461,4.383,2.841,8.521,8.51,14.189c5.666,5.666,9.805,7.046,14.187,8.505c4.591,1.53,9.339,3.113,15.577,9.351
	c6.238,6.238,7.819,10.986,9.35,15.579c1.459,4.382,2.839,8.521,8.508,14.186l-1.396,1.396l1.396-1.396
	c5.666,5.666,9.805,7.045,14.186,8.506c4.592,1.53,9.338,3.113,15.577,9.351c1.788,1.787,3.184,3.45,4.313,5.024
	c1.975-0.533,3.917-1.138,5.83-1.807c-1.223-2.294-2.967-4.742-5.794-7.569C154.126,187.539,150.02,186.171,145.671,184.722z"/>
<path fill="none" d="M126.606,60.656c1.46,4.381,2.838,8.521,8.508,14.189c5.668,5.667,9.806,7.046,14.188,8.506
	c4.59,1.53,9.337,3.113,15.575,9.351c6.24,6.239,7.822,10.986,9.354,15.578c1.46,4.382,2.839,8.52,8.508,14.187l-1.396,1.396
	l1.396-1.396c5.666,5.667,9.806,7.046,14.186,8.507c4.592,1.529,9.339,3.111,15.577,9.35c2.529,2.529,4.285,4.811,5.591,6.939
	c0.813-2.452,1.517-4.955,2.106-7.501c-0.914-1.194-2.007-2.448-3.348-3.79c-5.579-5.579-9.686-6.948-14.032-8.396
	c-4.623-1.541-9.403-3.135-15.729-9.459l1.396-1.396l-1.396,1.396c-6.325-6.326-7.918-11.106-9.459-15.729
	c-1.449-4.348-2.818-8.456-8.4-14.037c-5.578-5.579-9.686-6.947-14.033-8.396c-4.623-1.541-9.404-3.134-15.729-9.46
	c-6.326-6.327-7.92-11.108-9.461-15.732c-1.448-4.347-2.817-8.453-8.396-14.031c-1.162-1.163-2.258-2.134-3.309-2.97
	c-2.521,0.582-5,1.273-7.43,2.074c1.97,1.267,4.075,2.938,6.387,5.249C123.495,51.319,125.077,56.066,126.606,60.656z"/>
<path fill="none" d="M83.511,174.068c-5.578-5.58-9.686-6.948-14.032-8.396c-1.653-0.552-3.328-1.113-5.085-1.892
	c1.54,2.596,3.201,5.108,5,7.517c2.919,1.384,6.081,3.438,9.766,7.124c3.743,3.742,5.805,6.947,7.19,9.905
	c2.419,1.826,4.938,3.522,7.548,5.085c-0.831-1.838-1.414-3.583-1.988-5.307C90.461,183.756,89.093,179.649,83.511,174.068z"/>
<path fill="none" d="M115.657,189.548c-6.326-6.326-7.919-11.107-9.459-15.729c-1.45-4.348-2.818-8.455-8.399-14.036
	c-5.58-5.58-9.687-6.947-14.034-8.396c-4.623-1.543-9.404-3.135-15.729-9.461c-6.327-6.327-7.92-11.107-9.461-15.73
	c-1.195-3.588-2.344-7.012-5.839-11.233c-0.119,1.833-0.2,3.676-0.2,5.538c0,1.779,0.072,3.54,0.181,5.291
	c1.095,2.206,1.783,4.268,2.459,6.297c1.461,4.383,2.84,8.521,8.509,14.189c5.666,5.666,9.805,7.047,14.186,8.507
	c4.591,1.529,9.338,3.112,15.576,9.351c6.24,6.24,7.823,10.987,9.354,15.58c1.461,4.38,2.84,8.519,8.506,14.185
	c5.668,5.667,9.806,7.046,14.188,8.507c2.282,0.761,4.604,1.535,7.129,2.889c1.607,0.091,3.225,0.146,4.854,0.146
	c1.886,0,3.751-0.083,5.605-0.204c-4.436-3.802-7.979-4.991-11.694-6.229C126.763,197.466,121.982,195.873,115.657,189.548z"/>
<path fill="none" d="M138.529,191.863c-4.622-1.54-9.402-3.134-15.729-9.46v0.001c-6.327-6.327-7.921-11.107-9.461-15.731
	c-1.448-4.348-2.817-8.455-8.396-14.034s-9.686-6.948-14.033-8.396c-4.624-1.541-9.404-3.134-15.729-9.459
	c-6.328-6.328-7.922-11.108-9.463-15.732c-1.449-4.347-2.818-8.454-8.396-14.031c-0.99-0.99-1.933-1.842-2.839-2.591
	c-0.515,2.374-0.922,4.787-1.234,7.23c5.999,6.094,7.565,10.768,9.072,15.287c1.46,4.382,2.839,8.521,8.507,14.188
	c5.666,5.667,9.805,7.045,14.186,8.507c4.592,1.529,9.339,3.112,15.578,9.351c6.239,6.24,7.822,10.988,9.353,15.579
	c1.46,4.381,2.839,8.52,8.505,14.186c5.666,5.667,9.805,7.045,14.187,8.507c4.591,1.528,9.338,3.111,15.577,9.349
	c0.04,0.039,0.073,0.077,0.112,0.116c2.42-0.309,4.81-0.71,7.162-1.218c-0.825-1.032-1.782-2.108-2.923-3.249
	C146.984,194.683,142.879,193.313,138.529,191.863z"/>
<path fill="none" d="M99.055,180.961c-1.45-4.347-2.818-8.454-8.4-14.034c-5.579-5.58-9.686-6.949-14.032-8.398
	c-4.623-1.541-9.404-3.135-15.729-9.46c-2.477-2.478-4.223-4.717-5.529-6.802c1.367,5.171,3.203,10.152,5.473,14.889
	c3.625,2.676,6.694,3.705,9.892,4.771c4.59,1.529,9.337,3.111,15.575,9.35c6.24,6.239,7.823,10.987,9.353,15.579
	c1.097,3.292,2.148,6.446,5.005,10.213c4.933,2.377,10.132,4.289,15.536,5.684c-2.334-1.354-4.853-3.233-7.682-6.062
	C102.188,190.363,100.596,185.584,99.055,180.961z"/>
<path fill="#FFFFFF" d="M168.521,41.438c-0.512-0.201-1.019-0.413-1.534-0.604c0.336,0.357,0.686,0.718,1.053,1.086L168.521,41.438z
	"/>
<path fill="#FFFFFF" d="M183.77,51.381c2.18,0.727,4.301,1.434,6.575,2.661c-6.555-5.221-13.896-9.488-21.823-12.603l-0.481,0.482
	C174.365,48.246,179.146,49.84,183.77,51.381z"/>
<path fill="#FFFFFF" d="M215.661,89.543l0.655-0.654c-3.22-8.021-7.613-15.44-12.99-22.033c1.357,2.42,2.109,4.656,2.875,6.958
	C207.742,78.437,209.335,83.217,215.661,89.543z"/>
<path fill="#FFFFFF" d="M217.127,90.944c-0.258-0.692-0.536-1.372-0.811-2.056l-0.655,0.655
	C216.159,90.042,216.646,90.501,217.127,90.944z"/>
<path fill="#FFFFFF" d="M162.292,47.668l1.396-1.396c-3.145-3.145-4.967-5.818-6.217-8.324c-1.569-0.379-3.155-0.71-4.758-1
	c1.396,3.564,3.481,7.412,8.183,12.115L162.292,47.668z"/>
<path fill="#FFFFFF" d="M209.915,95.289l1.396-1.396c-5.668-5.665-7.047-9.804-8.507-14.185c-1.532-4.591-3.114-9.34-9.354-15.579
	c-6.238-6.238-10.985-7.821-15.575-9.351c-4.381-1.46-8.519-2.839-14.186-8.506v0l-1.396,1.396l-1.396,1.396
	c6.325,6.325,11.106,7.917,15.729,9.459c4.347,1.449,8.452,2.818,14.032,8.397c5.581,5.581,6.95,9.688,8.4,14.036
	c1.541,4.623,3.135,9.403,9.461,15.729l0,0c0,0,0,0,0,0L209.915,95.289z"/>
<path fill="#FFFFFF" d="M209.915,95.289l-1.396,1.396c0,0,0,0,0,0c4.856,4.856,8.801,6.921,12.463,8.317
	c-0.294-1.591-0.625-3.167-1.006-4.725c-2.605-1.255-5.377-3.095-8.666-6.384L209.915,95.289z"/>
<path fill="#FFFFFF" d="M153.754,56.207l2.792-2.792c-5.669-5.668-7.048-9.806-8.508-14.188c-0.344-1.029-0.693-2.068-1.093-3.129
	c-1.464-0.162-2.938-0.289-4.422-0.376c0.719,1.608,1.238,3.165,1.769,4.753C145.833,45.099,147.426,49.88,153.754,56.207z"/>
<path fill="#FFFFFF" d="M195.661,86.851c-1.531-4.591-3.113-9.339-9.353-15.579c-6.238-6.238-10.984-7.82-15.576-9.35
	c-4.382-1.46-8.52-2.839-14.187-8.507l-2.792,2.792c6.326,6.327,11.106,7.919,15.729,9.46c4.349,1.449,8.455,2.818,14.034,8.396
	c5.579,5.581,6.949,9.688,8.397,14.035c1.541,4.624,3.135,9.404,9.461,15.73l2.792-2.792
	C198.501,95.371,197.12,91.232,195.661,86.851z"/>
<path fill="#FFFFFF" d="M204.168,101.038l-2.792,2.792c6.324,6.326,11.105,7.918,15.729,9.459c1.714,0.571,3.392,1.135,5.137,1.944
	c-0.093-1.497-0.226-2.983-0.393-4.458c-1.189-0.461-2.347-0.848-3.496-1.23C213.972,108.083,209.834,106.704,204.168,101.038z"/>
<path fill="#FFFFFF" d="M146.61,63.351l2.791-2.792c-5.668-5.667-7.047-9.806-8.508-14.188c-1.11-3.334-2.259-6.755-5.191-10.767
	c-1.629,0.034-3.247,0.113-4.854,0.237c3.859,4.474,5.054,8.038,6.301,11.778C138.69,52.243,140.283,57.024,146.61,63.351z"/>
<path fill="#FFFFFF" d="M188.518,93.995c-1.531-4.592-3.112-9.339-9.353-15.579c-6.239-6.239-10.986-7.821-15.577-9.351
	c-4.381-1.46-8.52-2.839-14.187-8.506l-2.791,2.792c6.325,6.326,11.106,7.918,15.729,9.459c4.349,1.449,8.456,2.818,14.035,8.397
	c5.58,5.58,6.949,9.688,8.398,14.035c1.54,4.623,3.134,9.404,9.46,15.729l2.791-2.792
	C191.356,102.514,189.978,98.376,188.518,93.995z"/>
<path fill="#FFFFFF" d="M197.023,108.18l-2.791,2.792c6.325,6.327,11.105,7.92,15.73,9.461c3.851,1.284,7.513,2.51,12.178,6.648
	c0.124-1.626,0.204-3.264,0.236-4.913c-4.187-3.154-7.721-4.333-11.167-5.481C206.829,115.227,202.689,113.848,197.023,108.18z"/>
<path fill="#FFFFFF" d="M130.006,54.761c1.541,4.624,3.135,9.405,9.461,15.732l2.791-2.792c-5.667-5.667-7.046-9.807-8.507-14.188
	c-1.53-4.591-3.111-9.338-9.35-15.575c-0.406-0.407-0.807-0.792-1.201-1.161c-1.65,0.279-3.282,0.609-4.898,0.982
	c1.051,0.835,2.146,1.807,3.309,2.97C127.188,46.309,128.558,50.415,130.006,54.761z"/>
<path fill="#FFFFFF" d="M181.376,101.138c-1.531-4.591-3.113-9.339-9.354-15.58c-6.239-6.238-10.985-7.82-15.576-9.35
	c-4.382-1.46-8.521-2.839-14.188-8.506l-2.791,2.792c6.325,6.326,11.106,7.919,15.729,9.46c4.348,1.449,8.455,2.817,14.033,8.396
	c5.582,5.582,6.951,9.689,8.4,14.037c1.541,4.623,3.134,9.403,9.459,15.729l1.396-1.396l1.396-1.396
	C184.215,109.657,182.835,105.52,181.376,101.138z"/>
<path fill="#FFFFFF" d="M204.066,123.829c-4.381-1.459-8.519-2.84-14.186-8.506v0l-1.396,1.396l-1.396,1.396
	c6.326,6.325,11.106,7.918,15.729,9.459c4.347,1.448,8.453,2.817,14.032,8.396c1.341,1.342,2.434,2.596,3.348,3.79
	c0.379-1.632,0.713-3.28,0.996-4.948c-0.487-0.534-0.994-1.075-1.553-1.633C213.403,126.942,208.656,125.359,204.066,123.829z"/>
<path fill="#FFFFFF" d="M122.86,61.903c1.541,4.625,3.134,9.406,9.463,15.733l2.791-2.792c-5.67-5.668-7.048-9.808-8.508-14.189
	c-1.529-4.59-3.111-9.337-9.348-15.574c-2.312-2.311-4.417-3.981-6.387-5.249c-1.652,0.545-3.281,1.14-4.888,1.781
	c2.558,1.24,5.277,3.053,8.483,6.259C120.044,53.451,121.411,57.557,122.86,61.903z"/>
<path fill="#FFFFFF" d="M181.343,123.862l1.396-1.396c-5.669-5.667-7.048-9.805-8.508-14.187c-1.531-4.591-3.113-9.338-9.354-15.578
	c-6.238-6.238-10.985-7.821-15.575-9.351c-4.382-1.46-8.52-2.839-14.188-8.506l-2.791,2.792c6.325,6.326,11.106,7.918,15.729,9.46
	c4.349,1.449,8.454,2.818,14.033,8.397c5.582,5.58,6.95,9.687,8.4,14.034c1.54,4.623,3.134,9.404,9.462,15.73l0,0
	c0-0.001,0-0.001,0-0.001L181.343,123.862z"/>
<path fill="#FFFFFF" d="M196.924,130.974c-4.38-1.461-8.52-2.84-14.186-8.507l-1.396,1.396l-1.396,1.396c0,0,0,0,0,0.001
	c6.325,6.325,11.105,7.919,15.729,9.46c4.348,1.448,8.453,2.817,14.032,8.396c3.474,3.473,5.313,6.374,6.559,9.119
	c0.658-1.634,1.266-3.291,1.824-4.972c-1.306-2.129-3.062-4.41-5.591-6.939C206.263,134.085,201.516,132.503,196.924,130.974z"/>
<path fill="#FFFFFF" d="M115.719,69.047c1.541,4.624,3.136,9.405,9.463,15.732l2.792-2.792c-5.669-5.667-7.049-9.807-8.51-14.188
	c-1.53-4.59-3.113-9.337-9.35-15.573c-4.129-4.129-7.604-6.214-10.812-7.599c-1.55,0.781-3.072,1.608-4.566,2.48
	c3.834,1.319,7.629,2.953,12.588,7.911C112.899,60.595,114.269,64.701,115.719,69.047z"/>
<path fill="#FFFFFF" d="M167.089,115.425c-1.532-4.591-3.114-9.339-9.356-15.579c-6.238-6.238-10.984-7.821-15.574-9.352
	c-4.381-1.46-8.518-2.84-14.185-8.507l-2.792,2.792c6.325,6.326,11.105,7.92,15.728,9.461c4.348,1.449,8.454,2.818,14.032,8.398
	c5.582,5.581,6.951,9.688,8.401,14.036c1.541,4.622,3.135,9.403,9.459,15.729l2.792-2.792
	C169.929,123.943,168.548,119.806,167.089,115.425z"/>
<path fill="#FFFFFF" d="M189.78,138.116c-4.382-1.46-8.521-2.841-14.187-8.506l-2.792,2.792c6.325,6.325,11.106,7.918,15.73,9.46
	c4.348,1.447,8.455,2.816,14.033,8.396c5.251,5.253,6.772,9.198,8.142,13.269c0.886-1.505,1.724-3.043,2.519-4.605
	c-1.383-3.389-3.463-7.049-7.869-11.454C199.118,141.229,194.371,139.646,189.78,138.116z"/>
<path fill="#FFFFFF" d="M100.179,62.16c5.578,5.578,6.947,9.684,8.396,14.031c1.541,4.624,3.135,9.405,9.463,15.731l2.791-2.792
	c-5.668-5.667-7.048-9.807-8.509-14.188c-1.53-4.59-3.112-9.337-9.35-15.575c-5.427-5.427-9.726-7.33-13.774-8.74
	c-1.322,0.915-2.612,1.87-3.879,2.857c0.277,0.093,0.553,0.185,0.828,0.276C90.493,55.212,94.599,56.581,100.179,62.16z"/>
<path fill="#FFFFFF" d="M159.944,122.566c-1.532-4.591-3.114-9.338-9.354-15.578c-6.237-6.238-10.985-7.82-15.576-9.351
	c-4.381-1.46-8.52-2.84-14.186-8.507l-2.791,2.792c6.325,6.327,11.105,7.92,15.729,9.461c4.348,1.449,8.454,2.818,14.033,8.397
	c5.58,5.581,6.949,9.687,8.398,14.035c1.541,4.623,3.136,9.403,9.462,15.729l2.791-2.791
	C162.784,131.086,161.404,126.948,159.944,122.566z"/>
<path fill="#FFFFFF" d="M182.638,145.26c-4.38-1.461-8.52-2.84-14.187-8.507l-2.791,2.791c6.326,6.326,11.105,7.92,15.729,9.461
	c4.348,1.449,8.453,2.818,14.032,8.397c5.58,5.581,6.949,9.687,8.397,14.033c0.161,0.482,0.324,0.968,0.49,1.456
	c0.99-1.262,1.947-2.547,2.865-3.863c-1.44-4.239-3.246-8.701-8.961-14.418C191.976,148.373,187.229,146.79,182.638,145.26z"/>
<path fill="#FFFFFF" d="M93.035,69.304c5.579,5.579,6.947,9.684,8.397,14.031c1.541,4.624,3.135,9.404,9.462,15.731l2.792-2.792
	c-5.668-5.667-7.049-9.806-8.508-14.188c-1.531-4.59-3.114-9.337-9.352-15.574c-6.025-6.026-10.66-7.708-15.106-9.196
	c-1.108,0.997-2.197,2.017-3.253,3.07c0.514,0.177,1.025,0.349,1.533,0.518C83.349,62.354,87.456,63.724,93.035,69.304z"/>
<path fill="#FFFFFF" d="M143.448,114.133c-6.237-6.239-10.984-7.821-15.576-9.352c-4.381-1.46-8.519-2.84-14.186-8.506l-2.792,2.792
	c6.325,6.326,11.106,7.919,15.729,9.46c4.348,1.449,8.453,2.819,14.033,8.398c5.581,5.581,6.95,9.687,8.398,14.035
	c1.541,4.622,3.134,9.402,9.46,15.729l2.792-2.792c-5.667-5.667-7.047-9.804-8.506-14.186
	C151.271,125.119,149.689,120.372,143.448,114.133z"/>
<path fill="#FFFFFF" d="M200.422,177.331c-1.53-4.591-3.114-9.338-9.354-15.577c-6.238-6.238-10.985-7.821-15.574-9.351
	c-4.382-1.461-8.52-2.841-14.187-8.508l-2.792,2.792c6.326,6.326,11.106,7.919,15.729,9.461c4.347,1.449,8.453,2.817,14.032,8.396
	c5.581,5.58,6.949,9.688,8.399,14.035c0.232,0.699,0.47,1.405,0.721,2.116c1.052-1.046,2.076-2.12,3.072-3.221
	C200.454,177.428,200.438,177.379,200.422,177.331z"/>
<path fill="#FFFFFF" d="M85.894,76.446c5.578,5.579,6.947,9.685,8.396,14.032c1.541,4.624,3.133,9.404,9.459,15.73l1.396-1.396
	l1.396-1.396c-5.666-5.667-7.046-9.806-8.507-14.187c-1.529-4.591-3.111-9.338-9.35-15.576c-5.993-5.993-10.608-7.689-15.032-9.17
	c-0.933,1.062-1.837,2.146-2.718,3.254c0.311,0.104,0.617,0.208,0.924,0.309C76.206,69.498,80.313,70.867,85.894,76.446z"/>
<path fill="#FFFFFF" d="M103.749,106.209c6.327,6.325,11.107,7.918,15.73,9.459c4.348,1.449,8.454,2.818,14.033,8.397
	c5.582,5.582,6.951,9.688,8.4,14.037c1.541,4.622,3.135,9.401,9.461,15.727l2.791-2.791c-5.666-5.666-7.046-9.805-8.506-14.185
	c-1.531-4.592-3.114-9.34-9.354-15.58c-6.239-6.238-10.986-7.821-15.577-9.351c-4.381-1.46-8.519-2.84-14.187-8.506v0l-1.396,1.396
	L103.749,106.209z"/>
<path fill="#FFFFFF" d="M183.927,168.897c-6.239-6.238-10.986-7.821-15.576-9.352c-4.38-1.461-8.519-2.84-14.186-8.507l-2.791,2.791
	c6.325,6.326,11.104,7.92,15.729,9.461c4.347,1.45,8.453,2.819,14.032,8.398c5.579,5.58,6.948,9.686,8.397,14.032
	c0.164,0.491,0.33,0.985,0.5,1.483c1.108-0.876,2.193-1.775,3.256-2.702c-0.003-0.011-0.007-0.021-0.01-0.029
	C191.747,179.883,190.165,175.136,183.927,168.897z"/>
<path fill="#FFFFFF" d="M87.146,97.621c1.541,4.625,3.134,9.406,9.461,15.733l1.396-1.396l1.396-1.396
	c-5.667-5.667-7.047-9.807-8.506-14.188c-1.53-4.59-3.112-9.337-9.35-15.574c-5.444-5.444-9.753-7.343-13.812-8.755
	c-0.777,1.115-1.525,2.25-2.25,3.403c4.071,1.37,8.019,2.891,13.271,8.143C84.327,89.168,85.696,93.274,87.146,97.621z"/>
<path fill="#FFFFFF" d="M96.606,113.354c6.326,6.325,11.107,7.917,15.73,9.459c4.346,1.448,8.453,2.816,14.032,8.396
	c5.581,5.581,6.95,9.688,8.399,14.036c1.542,4.622,3.135,9.403,9.461,15.729l2.791-2.792c-5.667-5.666-7.046-9.804-8.506-14.187
	c-1.531-4.59-3.114-9.338-9.354-15.577c-6.238-6.238-10.986-7.821-15.576-9.352c-4.381-1.46-8.52-2.84-14.188-8.506l0,0
	l-1.396,1.396L96.606,113.354z"/>
<path fill="#FFFFFF" d="M161.209,166.689c-4.382-1.461-8.521-2.84-14.188-8.507l-2.791,2.792c6.325,6.326,11.106,7.919,15.73,9.461
	c4.348,1.449,8.455,2.816,14.033,8.396c5.481,5.481,6.899,9.541,8.321,13.806c1.154-0.72,2.292-1.467,3.411-2.24
	c-1.437-4.221-3.253-8.668-8.941-14.356C170.546,169.802,165.799,168.219,161.209,166.689z"/>
<path fill="#FFFFFF" d="M80.003,104.765c1.541,4.624,3.135,9.405,9.463,15.732l2.791-2.792c-5.668-5.667-7.048-9.806-8.508-14.188
	c-1.529-4.591-3.113-9.338-9.351-15.576c-4.472-4.473-8.177-6.548-11.608-7.931c-0.631,1.16-1.232,2.338-1.809,3.53
	c3.199,1.256,6.512,3.079,10.625,7.192C77.186,96.311,78.554,100.417,80.003,104.765z"/>
<path fill="#FFFFFF" d="M105.194,129.956c4.348,1.448,8.455,2.817,14.035,8.397c5.578,5.58,6.947,9.687,8.396,14.035
	c1.541,4.622,3.135,9.403,9.461,15.729l2.791-2.791c-5.667-5.668-7.047-9.807-8.506-14.188c-1.531-4.591-3.113-9.339-9.352-15.578
	c-6.239-6.238-10.986-7.821-15.578-9.351c-4.382-1.46-8.52-2.84-14.186-8.506l-2.791,2.792
	C95.79,126.822,100.571,128.415,105.194,129.956z"/>
<path fill="#FFFFFF" d="M154.064,173.833c-4.381-1.461-8.52-2.84-14.187-8.506l-2.791,2.791c6.325,6.326,11.105,7.919,15.729,9.46
	c4.349,1.449,8.455,2.818,14.033,8.397c4.328,4.326,6.119,7.768,7.383,11.121c1.196-0.574,2.375-1.179,3.539-1.808
	c-1.384-3.57-3.442-7.416-8.13-12.105C163.402,176.945,158.655,175.362,154.064,173.833z"/>
<path fill="#FFFFFF" d="M72.859,111.908c1.542,4.624,3.135,9.405,9.463,15.732l2.792-2.791c-5.67-5.669-7.049-9.808-8.51-14.189
	c-1.529-4.59-3.112-9.337-9.35-15.575c-3.158-3.158-5.934-5.121-8.5-6.49c-0.5,1.231-0.972,2.475-1.415,3.734
	c2.166,1.21,4.479,2.902,7.123,5.548C70.042,103.455,71.41,107.561,72.859,111.908z"/>
<path fill="#FFFFFF" d="M98.05,137.1c4.348,1.449,8.455,2.817,14.035,8.396c5.58,5.581,6.948,9.688,8.398,14.036
	c1.54,4.622,3.134,9.403,9.459,15.729l2.791-2.792c-5.666-5.665-7.045-9.804-8.505-14.186c-1.53-4.591-3.113-9.339-9.353-15.578
	c-6.239-6.237-10.986-7.821-15.576-9.351c-4.383-1.461-8.52-2.84-14.186-8.505l-2.792,2.791
	C88.647,133.965,93.428,135.559,98.05,137.1z"/>
<path fill="#FFFFFF" d="M146.92,180.977c-4.381-1.461-8.52-2.84-14.187-8.508l-2.791,2.792c6.326,6.326,11.106,7.919,15.729,9.461
	c4.349,1.449,8.455,2.817,14.034,8.396c2.827,2.827,4.571,5.275,5.794,7.569c1.256-0.438,2.496-0.905,3.724-1.401
	c-1.378-2.695-3.378-5.611-6.727-8.959C156.258,184.088,151.511,182.505,146.92,180.977z"/>
<path fill="#FFFFFF" d="M65.718,119.051c1.541,4.624,3.135,9.404,9.463,15.732l2.791-2.792c-5.669-5.668-7.049-9.806-8.51-14.189
	c-1.529-4.591-3.111-9.337-9.35-15.574c-1.629-1.628-3.153-2.934-4.603-4.01c-0.377,1.391-0.721,2.794-1.027,4.211
	c0.906,0.749,1.849,1.601,2.839,2.591C62.899,110.597,64.269,114.704,65.718,119.051z"/>
<path fill="#FFFFFF" d="M90.91,144.242c4.348,1.448,8.454,2.817,14.033,8.396s6.948,9.687,8.396,14.034
	c1.54,4.624,3.134,9.404,9.461,15.731v-0.001l0,0l1.396-1.396l1.396-1.396c-5.669-5.665-7.049-9.804-8.508-14.186
	c-1.53-4.593-3.111-9.341-9.35-15.579c-6.238-6.237-10.986-7.82-15.577-9.351c-4.382-1.459-8.521-2.839-14.187-8.505l-2.791,2.792
	C81.506,141.108,86.286,142.701,90.91,144.242z"/>
<path fill="#FFFFFF" d="M139.778,188.118c-4.381-1.461-8.52-2.84-14.186-8.506l-1.396,1.396l-1.396,1.396l0,0
	c6.326,6.326,11.106,7.92,15.729,9.46c4.35,1.45,8.455,2.819,14.034,8.397c1.141,1.141,2.098,2.217,2.923,3.249
	c1.407-0.304,2.802-0.644,4.183-1.017c-1.13-1.574-2.525-3.237-4.313-5.024C149.116,191.231,144.37,189.648,139.778,188.118z"/>
<path fill="#FFFFFF" d="M68.036,141.925l2.791-2.791c-5.668-5.668-7.047-9.807-8.507-14.188c-1.507-4.519-3.073-9.192-9.072-15.287
	c-0.223,1.751-0.398,3.518-0.512,5.302c3.495,4.221,4.644,7.646,5.839,11.233C60.116,130.817,61.709,135.598,68.036,141.925z"/>
<path fill="#FFFFFF" d="M83.765,151.386c4.348,1.449,8.454,2.816,14.034,8.396c5.581,5.581,6.949,9.688,8.399,14.036
	c1.54,4.622,3.133,9.403,9.459,15.729l2.791-2.792c-5.666-5.666-7.045-9.805-8.505-14.186c-1.53-4.591-3.113-9.339-9.353-15.579
	c-6.239-6.238-10.986-7.821-15.578-9.351c-4.381-1.462-8.52-2.84-14.186-8.507l-2.791,2.791
	C74.36,148.251,79.142,149.843,83.765,151.386z"/>
<path fill="#FFFFFF" d="M132.635,195.263c-4.382-1.462-8.521-2.84-14.187-8.507l-2.791,2.792c6.325,6.325,11.105,7.918,15.73,9.46
	c3.716,1.237,7.259,2.427,11.694,6.229c1.764-0.115,3.51-0.288,5.242-0.509c-0.039-0.039-0.072-0.077-0.112-0.116
	C141.973,198.374,137.226,196.791,132.635,195.263z"/>
<path fill="#FFFFFF" d="M63.685,146.276c-5.669-5.669-7.048-9.807-8.509-14.189c-0.676-2.029-1.364-4.091-2.459-6.297
	c0.348,5.659,1.243,11.17,2.646,16.477c1.307,2.085,3.053,4.324,5.529,6.802L63.685,146.276z"/>
<path fill="#FFFFFF" d="M76.622,158.528c4.347,1.449,8.453,2.818,14.032,8.398c5.582,5.58,6.95,9.688,8.4,14.034
	c1.541,4.623,3.134,9.402,9.46,15.729l2.791-2.791c-5.666-5.666-7.045-9.805-8.506-14.185c-1.53-4.593-3.113-9.34-9.354-15.58
	c-6.238-6.238-10.985-7.821-15.576-9.351c-4.381-1.46-8.52-2.841-14.186-8.507l-2.792,2.792
	C67.218,155.394,71.999,156.987,76.622,158.528z"/>
<path fill="#FFFFFF" d="M111.306,193.898l-2.791,2.791c2.829,2.829,5.348,4.709,7.682,6.062c5.293,1.365,10.787,2.224,16.426,2.542
	c-2.525-1.354-4.847-2.128-7.129-2.889C121.111,200.944,116.974,199.565,111.306,193.898z"/>
<path fill="#FFFFFF" d="M86.303,171.276c-6.238-6.238-10.985-7.82-15.575-9.35c-3.197-1.066-6.267-2.096-9.892-4.771
	c1.087,2.269,2.281,4.475,3.558,6.625c1.757,0.778,3.432,1.34,5.085,1.892c4.347,1.448,8.454,2.816,14.032,8.396
	c5.582,5.581,6.95,9.688,8.398,14.036c0.574,1.724,1.157,3.469,1.988,5.307c2.194,1.314,4.447,2.542,6.763,3.657
	c-2.856-3.767-3.908-6.921-5.005-10.213C94.126,182.264,92.543,177.516,86.303,171.276z"/>
<path fill="#FFFFFF" d="M69.394,171.297c4.818,6.446,10.534,12.181,16.956,17.029c-1.386-2.958-3.447-6.163-7.19-9.905
	C75.475,174.735,72.312,172.681,69.394,171.297z"/>
</svg>
