<?xml version="1.0" standalone="no"?>
<!DOCTYPE svg PUBLIC "-//W3C//DTD SVG 1.1//EN" "http://www.w3.org/Graphics/SVG/1.1/DTD/svg11.dtd" >
<svg xmlns="http://www.w3.org/2000/svg">
<metadata></metadata>
<defs>
<font id="gt_walsheim_triallight" horiz-adv-x="1167" >
<font-face units-per-em="2048" ascent="1536" descent="-512" />
<missing-glyph horiz-adv-x="522" />
<glyph horiz-adv-x="2048" />
<glyph horiz-adv-x="2048" />
<glyph unicode="&#xd;" horiz-adv-x="2048" />
<glyph unicode=" "  horiz-adv-x="522" />
<glyph unicode="&#x09;" horiz-adv-x="522" />
<glyph unicode="&#xa0;" horiz-adv-x="522" />
<glyph unicode="," horiz-adv-x="512" d="M113 111q0 52 36 87t93 35q67 0 112 -53.5t45 -159.5q0 -131 -72 -194.5t-200 -63.5v72q113 0 145 86q18 47 13 88q-15 -18 -54 -18q-51 0 -84.5 35t-33.5 86z" />
<glyph unicode="-" horiz-adv-x="602" d="M61 524v119h480v-119h-480z" />
<glyph unicode="." horiz-adv-x="468" d="M113 113q0 51 34.5 87t85.5 36q52 0 87.5 -36t35.5 -87t-35.5 -87t-87.5 -36q-51 0 -85.5 36t-34.5 87z" />
<glyph unicode="0" d="M106 449v536q0 128 58.5 236t169 173.5t250.5 65.5t250.5 -65.5t168.5 -173.5t58 -236v-536q0 -128 -58 -236t-168.5 -174t-250.5 -66t-250.5 66t-169 174t-58.5 236zM246 449q0 -145 93 -247t243 -102q151 0 245.5 102t94.5 247v536q0 145 -94.5 246.5t-245.5 101.5 q-150 0 -243 -101.5t-93 -246.5v-536z" />
<glyph unicode="1" d="M287 1083v113q75 0 126.5 8.5t85 25t51.5 46.5t25 66.5t7 91.5h133v-1434h-144v1083h-284z" />
<glyph unicode="2" d="M158 1008q0 201 128 324.5t332 123.5q192 0 310.5 -108.5t118.5 -290.5q0 -57 -13.5 -108t-33.5 -89t-54.5 -74.5t-64 -60t-75.5 -50.5t-75 -41t-76 -36q-141 -65 -212.5 -126.5t-99.5 -139.5t-28 -205h738v-127h-893q0 113 11.5 201.5t37 157.5t58.5 119.5t84 92.5 t104.5 72.5t128.5 63.5q45 19 71 31.5t65 33.5t62 38.5t50.5 44.5t42 55t24.5 65.5t10 79.5q0 127 -78 200.5t-213 73.5q-149 0 -235 -86.5t-86 -234.5h-139z" />
<glyph unicode="3" d="M102 426h138q0 -146 95 -234t247 -88q147 0 235 82t88 211q0 126 -84 205.5t-241 79.5h-109v125h109q146 0 222.5 71.5t76.5 190.5q0 123 -81 191.5t-218 68.5q-146 0 -226 -77.5t-80 -207.5h-139q0 184 121.5 298t318.5 114q191 0 316 -107t125 -280q0 -122 -66 -209.5 t-184 -116.5q129 -30 203.5 -122.5t74.5 -227.5q0 -183 -132 -299.5t-334 -116.5q-205 0 -340.5 123t-135.5 326z" />
<glyph unicode="4" d="M150 492v942h139v-816h405v453h140v-453h233v-126h-233v-492h-140v492h-544z" />
<glyph unicode="5" d="M111 453h137q0 -146 93.5 -247.5t244.5 -101.5t245.5 102t94.5 249q0 145 -95 243.5t-249 98.5q-208 0 -295 -187h-144v824h818v-125h-693v-564q44 85 137.5 131t206.5 46q134 0 238 -63.5t158.5 -169t54.5 -232.5q0 -131 -57.5 -240t-167.5 -174.5t-252 -65.5 q-141 0 -251 66t-167 173.5t-57 236.5z" />
<glyph unicode="6" d="M106 453q0 141 80 272l443 709h159l-354 -553q47 47 160 47q134 0 241.5 -65t166.5 -173.5t59 -236.5q0 -95 -34.5 -181.5t-95.5 -152t-151 -104t-196 -38.5q-140 0 -250.5 66t-169 174t-58.5 236zM246 453q0 -145 93 -247t243 -102q151 0 245.5 102t94.5 247 q0 147 -94.5 248.5t-245.5 101.5q-150 0 -243 -101.5t-93 -248.5z" />
<glyph unicode="7" d="M195 1309v125h862l-664 -1434h-147l610 1309h-661z" />
<glyph unicode="8" d="M100 393q0 127 69.5 224.5t197.5 127.5q-118 32 -179 120t-61 202q0 167 121 278t323 111q201 0 323 -111t122 -278q0 -114 -61 -202t-179 -120q128 -29 197 -127.5t69 -224.5q0 -177 -128.5 -296.5t-342.5 -119.5t-342.5 118.5t-128.5 297.5zM238 393q0 -126 91 -207.5 t242 -81.5q152 0 243 82t91 207q0 124 -90 205.5t-244 81.5t-243.5 -81t-89.5 -206zM268 1061q0 -117 81.5 -191.5t221.5 -74.5q142 0 224 74.5t82 191.5q0 116 -84 192t-222 76q-137 0 -220 -75.5t-83 -192.5z" />
<glyph unicode="9" d="M106 981q0 127 58 235t169 174t251 66t250.5 -65.5t168.5 -173t58 -234.5q0 -141 -80 -272l-442 -711h-160l354 553q-44 -47 -162 -47q-199 0 -332 140t-133 335zM246 981q0 -145 94.5 -246.5t245.5 -101.5q150 0 243 101.5t93 246.5t-93 246.5t-243 101.5 q-151 0 -245.5 -101.5t-94.5 -246.5z" />
<glyph unicode="A" horiz-adv-x="1118" d="M14 0l494 1434h104l494 -1434h-145l-89 258h-626l-86 -258h-146zM289 383h540l-270 831z" />
<glyph unicode="B" horiz-adv-x="1193" d="M170 0v1434h489q86 0 157 -23.5t117.5 -62t78 -89.5t45.5 -104t14 -108q0 -128 -71.5 -216.5t-174.5 -109.5q102 -22 179 -110.5t77 -219.5q0 -69 -23.5 -135t-71 -125t-130.5 -95t-190 -36h-496zM309 127h357q130 0 203 80t73 184q0 48 -17.5 95t-50 86t-85 63 t-115.5 24h-365v-532zM309 784h357q65 0 118 23.5t84.5 62t48.5 84t17 93.5q0 66 -29 124t-93.5 98t-152.5 40h-350v-525z" />
<glyph unicode="C" horiz-adv-x="1587" d="M88 719q0 146 50 279.5t141.5 237.5t233.5 166t314 62q269 0 449.5 -142t224.5 -370h-143q-40 170 -178 278.5t-349 108.5q-112 0 -209.5 -33.5t-168.5 -91.5t-122 -136.5t-76.5 -170t-25.5 -188.5q0 -126 43.5 -239t121 -198.5t193 -135.5t251.5 -50q190 0 324.5 92 t187.5 234h151q-61 -198 -240 -325.5t-430 -127.5q-167 0 -308 60.5t-235.5 163.5t-147 239t-52.5 287z" />
<glyph unicode="D" horiz-adv-x="1421" d="M170 0v1434h420q172 0 315.5 -61t235 -162t142 -229t50.5 -265t-50.5 -265t-142 -229t-235 -162t-315.5 -61h-420zM309 127h281q139 0 255 50t190.5 133t115.5 188.5t41 218.5t-41 218.5t-115.5 189t-190.5 134t-255 50.5h-281v-1182z" />
<glyph unicode="E" horiz-adv-x="1112" d="M170 0v1434h782v-125h-643v-533h643v-127h-643v-522h643v-127h-782z" />
<glyph unicode="F" horiz-adv-x="1101" d="M170 0v1434h782v-125h-643v-570h643v-125h-643v-614h-139z" />
<glyph unicode="G" horiz-adv-x="1705" d="M88 711q0 148 51.5 284t143.5 240.5t231 166.5t303 62q231 0 395.5 -114t200.5 -287h-141q-36 120 -160 198t-293 78q-134 0 -246.5 -51.5t-187 -138.5t-115.5 -200t-41 -236q0 -120 39.5 -229.5t113.5 -196.5t191.5 -139t262.5 -52q224 0 357 119t159 322h-404v127h701 v-127h-152q-35 -260 -209 -414t-457 -154q-141 0 -262.5 40.5t-208.5 111t-149 164.5t-92.5 202.5t-30.5 223.5z" />
<glyph unicode="H" horiz-adv-x="1357" d="M170 0v1434h139v-658h740v658h139v-1434h-139v649h-740v-649h-139z" />
<glyph unicode="I" horiz-adv-x="483" d="M170 0v1434h143v-1434h-143z" />
<glyph unicode="J" horiz-adv-x="1097" d="M33 444h139q0 -158 92 -253t236 -95q141 0 225 93.5t84 252.5v992h139v-992q0 -212 -122.5 -342.5t-325.5 -130.5q-205 0 -336 132.5t-131 342.5z" />
<glyph unicode="K" horiz-adv-x="1173" d="M170 0v1434h139v-674l670 674h178l-706 -717l706 -717h-178l-670 674v-674h-139z" />
<glyph unicode="L" horiz-adv-x="864" d="M170 0v1434h139v-1307h494v-127h-633z" />
<glyph unicode="M" horiz-adv-x="1658" d="M170 0v1434h135l524 -1225l527 1225h133v-1434h-137v1112l-467 -1112h-111l-465 1112v-1112h-139z" />
<glyph unicode="N" horiz-adv-x="1355" d="M170 0v1434h154l723 -1194v1194h139v-1434h-154l-723 1196v-1196h-139z" />
<glyph unicode="O" horiz-adv-x="1650" d="M88 717q0 116 32 226t95.5 204t151 165t206 111.5t252.5 40.5q167 0 308 -62t234 -166.5t144.5 -238.5t51.5 -280t-51.5 -280.5t-144.5 -238.5t-234 -166.5t-308 -62.5t-308 62.5t-233.5 166.5t-144 238.5t-51.5 280.5zM233 717q0 -97 26 -188.5t76.5 -169.5t121 -137 t165.5 -92.5t203 -33.5q134 0 247.5 51.5t188.5 138t116.5 198.5t41.5 233t-41.5 233t-116.5 198.5t-188.5 138.5t-247.5 52t-247.5 -52t-187.5 -138.5t-115.5 -198.5t-41.5 -233z" />
<glyph unicode="P" horiz-adv-x="1220" d="M170 0v1434h494q141 0 252 -65.5t169 -173.5t58 -237q0 -128 -58 -235.5t-169 -172.5t-252 -65h-355v-485h-139zM309 610h355q151 0 245.5 101.5t94.5 246.5q0 147 -94.5 249t-245.5 102h-355v-699z" />
<glyph unicode="Q" horiz-adv-x="1650" d="M88 717q0 116 32 226t95.5 204t151 165t206 111.5t252.5 40.5q167 0 308 -62t234 -166t144.5 -239.5t51.5 -283.5q0 -274 -164.5 -475t-423.5 -248l129 -183q-100 -51 -121 -61l-160 223q-167 1 -307.5 63.5t-233 166.5t-143.5 238t-51 280zM233 717q0 -97 26 -188.5 t76.5 -169.5t121 -137t165.5 -92.5t203 -33.5q134 0 247.5 51.5t188.5 138t116.5 198.5t41.5 233t-41.5 233t-116.5 198.5t-188.5 138.5t-247.5 52t-247.5 -52t-187.5 -138.5t-115.5 -198.5t-41.5 -233z" />
<glyph unicode="R" horiz-adv-x="1232" d="M170 0v1434h494q141 0 252 -65.5t169 -173.5t58 -237q0 -160 -91 -284t-245 -168l321 -506h-159l-307 485h-353v-485h-139zM309 610h355q151 0 245.5 101.5t94.5 246.5q0 147 -94.5 249t-245.5 102h-355v-699z" />
<glyph unicode="S" horiz-adv-x="1171" d="M96 444h140q0 -158 99.5 -253t272.5 -95q150 0 240 73.5t90 203.5q0 41 -10.5 76t-25.5 60t-42.5 47t-50 36t-61 28.5t-63.5 22t-67 19.5q-64 18 -103.5 30t-94.5 33.5t-89 41.5t-71.5 51t-58.5 66.5t-35 83.5t-14 105q0 124 59.5 214t158 133.5t224.5 43.5 q202 0 324 -114t126 -316h-137q-4 148 -85.5 226.5t-227.5 78.5q-136 0 -220.5 -67.5t-84.5 -188.5q0 -38 10 -71t24 -56.5t41 -44.5t49.5 -34.5t61 -28t64.5 -22.5t71 -21q62 -17 97.5 -28t91.5 -32.5t89 -41.5t73 -53t62 -69.5t37 -87t15 -110.5q0 -194 -132.5 -304 t-338.5 -110q-228 0 -368 130t-140 345z" />
<glyph unicode="T" horiz-adv-x="970" d="M29 1309v125h913v-125h-389v-1309h-137v1309h-387z" />
<glyph unicode="U" horiz-adv-x="1265" d="M150 451v983h139v-983q0 -149 95.5 -252t248.5 -103t248.5 103t95.5 252v983h139v-983q0 -130 -58.5 -239.5t-170.5 -176t-254 -66.5t-254 66.5t-170.5 176t-58.5 239.5z" />
<glyph unicode="V" horiz-adv-x="1140" d="M10 1434h146l415 -1211l414 1211h145l-507 -1434h-105z" />
<glyph unicode="W" horiz-adv-x="1935" d="M12 1434h146l391 -1201l364 1201h109l364 -1201l392 1201h145l-485 -1434h-107l-362 1198l-365 -1198h-106z" />
<glyph unicode="X" horiz-adv-x="1093" d="M23 0l446 717l-446 717h157l367 -598l368 598h156l-446 -717l446 -717h-156l-368 596l-367 -596h-157z" />
<glyph unicode="Y" horiz-adv-x="1157" d="M18 1434h160l457 -723l373 723h151l-731 -1434h-154l291 567z" />
<glyph unicode="Z" horiz-adv-x="1130" d="M33 0l848 1309h-805v125h1040l-850 -1307h869v-127h-1102z" />
<glyph unicode="a" horiz-adv-x="1212" d="M88 453q0 128 58.5 236.5t165 173.5t237.5 65q123 0 218 -57t142 -158v194h133v-907h-133v193q-45 -96 -138.5 -156t-219.5 -60q-132 0 -239 65.5t-165.5 174.5t-58.5 236zM221 453q0 -146 95.5 -250.5t248.5 -104.5t248.5 104t95.5 251q0 150 -96 253t-248 103 q-153 0 -248.5 -103.5t-95.5 -252.5z" />
<glyph unicode="b" horiz-adv-x="1214" d="M170 0v1434h133v-721q47 101 142.5 158t218.5 57q131 0 237 -65t164.5 -173.5t58.5 -236.5t-58.5 -236.5t-165 -174t-238.5 -65.5q-126 0 -220 60t-139 156v-193h-133zM303 453q0 -147 95.5 -251t248.5 -104t248.5 104.5t95.5 250.5q0 149 -95.5 252.5t-248.5 103.5 q-152 0 -248 -103t-96 -253z" />
<glyph unicode="c" horiz-adv-x="1073" d="M96 455q0 94 29 178.5t85 151t145.5 106t201.5 39.5q98 0 177 -30.5t128 -81.5t76.5 -113t32.5 -130h-131q-11 105 -84 169.5t-199 64.5q-108 0 -184.5 -50.5t-111 -129t-34.5 -174.5q0 -72 20.5 -135.5t60 -113.5t105 -79t148.5 -29q119 0 189.5 57t91.5 156h133 q-22 -150 -132 -242t-286 -92q-112 0 -201.5 39.5t-145.5 107t-85 152t-29 179.5z" />
<glyph unicode="d" horiz-adv-x="1212" d="M88 453q0 128 58.5 236.5t165 173.5t237.5 65q123 0 218 -57t142 -158v721h133v-1434h-133v193q-45 -96 -138.5 -156t-219.5 -60q-132 0 -239 65.5t-165.5 174.5t-58.5 236zM221 453q0 -146 95.5 -250.5t248.5 -104.5t248.5 104t95.5 251q0 150 -96 253t-248 103 q-153 0 -248.5 -103.5t-95.5 -252.5z" />
<glyph unicode="e" horiz-adv-x="1062" d="M96 459q0 204 118.5 336.5t315.5 132.5q186 0 308.5 -116.5t122.5 -289.5q0 -48 -7 -96h-725q2 -145 83 -239.5t233 -94.5q108 0 175.5 47t94.5 121h133q-26 -120 -133.5 -201.5t-271.5 -81.5q-109 0 -195.5 39.5t-140.5 107t-82.5 153.5t-28.5 182zM231 528h600 q0 128 -84.5 207.5t-214.5 79.5q-128 0 -211 -78.5t-90 -208.5z" />
<glyph unicode="f" horiz-adv-x="686" d="M47 793v114h205v203q0 88 20 153t48.5 99t70 54t73.5 25t71 5q77 0 133 -23v-114q-49 18 -109 18q-29 0 -50 -3.5t-46 -15.5t-41 -33.5t-26.5 -60t-10.5 -92.5v-215h283v-114h-283v-793h-133v793h-205z" />
<glyph unicode="g" horiz-adv-x="1208" d="M88 455q0 195 132 334t331 139q127 0 220 -59t138 -154v192h133v-979q0 -247 -124.5 -362t-346.5 -115q-121 0 -211.5 32.5t-144.5 92t-82 132t-33 161.5h133q24 -297 334 -297q342 0 342 356v267q-45 -97 -138 -157.5t-220 -60.5q-132 0 -239 65.5t-165.5 175 t-58.5 237.5zM221 455q0 -149 95.5 -253t248.5 -104q152 0 248 103.5t96 253.5q0 147 -95.5 250.5t-248.5 103.5t-248.5 -104t-95.5 -250z" />
<glyph unicode="h" horiz-adv-x="1150" d="M170 0v1434h133v-725q41 98 130.5 158.5t217.5 60.5q178 0 269 -113q79 -98 79 -283v-532h-133v494q0 142 -65 228.5t-195 86.5q-75 0 -134.5 -30t-95.5 -79.5t-54.5 -109.5t-18.5 -125v-465h-133z" />
<glyph unicode="i" horiz-adv-x="518" d="M137 1262q0 52 35 87t86 35q53 0 88 -35t35 -87q0 -51 -35.5 -86t-87.5 -35q-51 0 -86 35t-35 86zM193 0v907h133v-907h-133z" />
<glyph unicode="j" horiz-adv-x="520" d="M-23 -403q59 -23 97 -23q123 0 123 156v1177h133v-1183q0 -135 -57 -201t-160 -66q-78 0 -136 25v115zM143 1262q0 52 35 87t86 35t87 -35t36 -87q0 -51 -36 -86t-87 -35t-86 35t-35 86z" />
<glyph unicode="k" horiz-adv-x="931" d="M170 0v1434h133v-953l426 426h174l-450 -454l450 -453h-174l-426 424v-424h-133z" />
<glyph unicode="l" horiz-adv-x="473" d="M170 0v1434h133v-1434h-133z" />
<glyph unicode="m" horiz-adv-x="1662" d="M170 0v907h133v-198q27 95 102 157t193 62q113 0 189 -59.5t96 -166.5q30 95 109.5 160.5t205.5 65.5q146 0 227.5 -93t81.5 -264v-571h-131v535q0 139 -58 206.5t-157 67.5q-121 0 -188.5 -94.5t-67.5 -253.5v-461h-131v510q0 159 -57.5 229t-155.5 70 q-121 0 -189.5 -95t-68.5 -253v-461h-133z" />
<glyph unicode="n" horiz-adv-x="1150" d="M170 0v907h133v-198q41 98 130.5 158.5t217.5 60.5q178 0 269 -113q79 -98 79 -283v-532h-133v494q0 142 -65 228.5t-195 86.5q-75 0 -134.5 -30t-95.5 -79.5t-54.5 -109.5t-18.5 -125v-465h-133z" />
<glyph unicode="o" horiz-adv-x="1130" d="M88 453q0 129 58 237t168 173t251 65q210 0 343.5 -138.5t133.5 -336.5q0 -128 -58 -236t-168.5 -174t-250.5 -66q-141 0 -251.5 66t-168 173.5t-57.5 236.5zM221 453q0 -146 95.5 -250.5t248.5 -104.5t248.5 104t95.5 251q0 150 -96 253t-248 103q-153 0 -248.5 -103.5 t-95.5 -252.5z" />
<glyph unicode="p" horiz-adv-x="1214" d="M170 -528v1435h133v-192q45 95 138.5 154t220.5 59q132 0 238.5 -65t165 -173t58.5 -235q0 -128 -58.5 -237.5t-165 -175t-238.5 -65.5q-127 0 -220.5 60.5t-138.5 157.5v-723h-133zM303 455q0 -150 96 -253.5t248 -103.5q153 0 248.5 104t95.5 253q0 146 -95.5 250 t-248.5 104t-248.5 -103.5t-95.5 -250.5z" />
<glyph unicode="q" horiz-adv-x="1214" d="M90 455q0 195 132 334t331 139q127 0 220 -59t138 -154v192h133v-1435h-133v723q-45 -97 -138 -157.5t-220 -60.5q-132 0 -239 65.5t-165.5 175t-58.5 237.5zM223 455q0 -149 95.5 -253t248.5 -104q152 0 248 103.5t96 253.5q0 147 -95.5 250.5t-248.5 103.5t-248.5 -104 t-95.5 -250z" />
<glyph unicode="r" horiz-adv-x="722" d="M170 0v907h133v-215q39 107 128.5 167.5t195.5 60.5q51 0 86 -15v-121q-48 11 -80 11q-83 0 -147.5 -31.5t-103.5 -86t-59 -124t-20 -150.5v-403h-133z" />
<glyph unicode="s" horiz-adv-x="921" d="M90 307h129q0 -115 70 -167t186 -52q103 0 160 38t57 110q0 27 -7.5 48.5t-26 37.5t-36 27t-50 20.5t-53.5 15t-63 14t-63 13.5q-46 11 -79 21.5t-72 31t-63.5 46t-41 66t-16.5 91.5q0 127 93 193.5t235 66.5q159 0 257.5 -81.5t98.5 -219.5h-129q0 93 -59 142.5 t-164 49.5q-92 0 -148.5 -39t-56.5 -110q0 -27 7.5 -47.5t26 -36t38 -26.5t56 -21t65.5 -16t81 -15q62 -11 109 -28t92.5 -46t70.5 -77.5t25 -112.5q0 -127 -93.5 -197t-250.5 -70q-81 0 -150 20t-122 59.5t-83 103.5t-30 147z" />
<glyph unicode="t" horiz-adv-x="673" d="M41 793v114h184v336h131v-336h265v-114h-265v-463q0 -56 9 -97t23 -64.5t36.5 -37t44.5 -18t53 -4.5q48 0 131 10v-119q-70 -12 -155 -12q-34 0 -61 3.5t-61 13.5t-59 32t-47 55t-33.5 87t-11.5 124v490h-184z" />
<glyph unicode="u" horiz-adv-x="1146" d="M150 375v532h131v-493q0 -142 65 -229t195 -87q99 0 170 52t103 128t32 164v465h131v-907h-131v199q-41 -98 -130.5 -160t-215.5 -62q-85 0 -156.5 29.5t-116.5 85.5q-77 95 -77 283z" />
<glyph unicode="v" horiz-adv-x="962" d="M16 907h142l321 -721l326 721h143l-422 -907h-94z" />
<glyph unicode="w" horiz-adv-x="1462" d="M16 907h142l256 -706l252 706h131l252 -706l256 706h141l-350 -907h-95l-270 760l-268 -760h-96z" />
<glyph unicode="x" horiz-adv-x="888" d="M47 0l320 455l-316 452h154l239 -348l240 348h154l-318 -452l322 -455h-154l-244 352l-243 -352h-154z" />
<glyph unicode="y" horiz-adv-x="1163" d="M156 -135h129q3 -141 70 -217t223 -76q150 0 220 79t70 263v285q-44 -102 -132.5 -162t-219.5 -60q-176 0 -268 111q-41 51 -58.5 120t-17.5 177v522h131v-483q0 -326 256 -326q79 0 140 29.5t97 79.5t54 110t18 125v465h131v-993q0 -240 -106.5 -351.5t-314.5 -111.5 q-112 0 -194 30.5t-130.5 87.5t-72 130t-25.5 166z" />
<glyph unicode="z" horiz-adv-x="882" d="M53 0l545 786h-522v121h751l-544 -786h546v-121h-776z" />
<glyph unicode="&#xad;" horiz-adv-x="602" d="M61 524v119h480v-119h-480z" />
<glyph unicode="&#x2000;" horiz-adv-x="732" />
<glyph unicode="&#x2001;" horiz-adv-x="1464" />
<glyph unicode="&#x2002;" horiz-adv-x="732" />
<glyph unicode="&#x2003;" horiz-adv-x="1464" />
<glyph unicode="&#x2004;" horiz-adv-x="488" />
<glyph unicode="&#x2005;" horiz-adv-x="366" />
<glyph unicode="&#x2006;" horiz-adv-x="244" />
<glyph unicode="&#x2007;" horiz-adv-x="244" />
<glyph unicode="&#x2008;" horiz-adv-x="183" />
<glyph unicode="&#x2009;" horiz-adv-x="292" />
<glyph unicode="&#x200a;" horiz-adv-x="81" />
<glyph unicode="&#x2010;" horiz-adv-x="602" d="M61 524v119h480v-119h-480z" />
<glyph unicode="&#x2011;" horiz-adv-x="602" d="M61 524v119h480v-119h-480z" />
<glyph unicode="&#x2012;" horiz-adv-x="602" d="M61 524v119h480v-119h-480z" />
<glyph unicode="&#x2013;" horiz-adv-x="1146" d="M61 524v119h1024v-119h-1024z" />
<glyph unicode="&#x2014;" horiz-adv-x="2170" d="M61 524v119h2048v-119h-2048z" />
<glyph unicode="&#x202f;" horiz-adv-x="292" />
<glyph unicode="&#x205f;" horiz-adv-x="366" />
<glyph unicode="&#xe000;" horiz-adv-x="911" d="M0 0v911h911v-911h-911z" />
</font>
</defs>
</svg>
